<!-- Generated by IcoMoon.io -->
<svg version="1.1" xmlns="http://www.w3.org/2000/svg" width="25" height="25" viewBox="0 0 25 25">
<title>antenna</title>
<path fill="#212121" d="M24.041 17.264l-6.596-6.645 0.732-3.606c0.176 0.071 0.379 0.112 0.592 0.114h0.006c0.006 0 0.013 0 0.020 0 0.932 0 1.687-0.755 1.687-1.687s-0.755-1.687-1.687-1.687c-0.932 0-1.687 0.755-1.687 1.687 0 0.203 0.036 0.397 0.101 0.577l-0.004-0.012-3.875 0.473-6.321-6.354c-0.075-0.076-0.179-0.124-0.294-0.125h-0c-0.109 0.001-0.214 0.044-0.292 0.121l-1.181 1.175c-0.075 0.075-0.122 0.18-0.122 0.295s0.047 0.219 0.122 0.295v0l0.636 0.645c-0.893 1.611-1.419 3.533-1.419 5.577 0 3.207 1.294 6.113 3.387 8.223l-0.001-0.001c0.034 0.032 0.072 0.057 0.114 0.076-0.025 0.128-0.040 0.276-0.041 0.427v4.834h-5c-1.15 0.001-2.082 0.933-2.084 2.083v0.833c0 0.23 0.187 0.417 0.417 0.417h19.167c0.23 0 0.416-0.186 0.416-0.417v-0.833c-0.001-1.15-0.933-2.082-2.083-2.083h-5v-2.142c0.783 0.164 1.581 0.248 2.382 0.25 2.015-0.002 3.91-0.518 5.56-1.424l-0.060 0.030 0.639 0.643c0.077 0.079 0.183 0.124 0.294 0.125 0.109-0.001 0.214-0.044 0.292-0.121l1.181-1.175c0.075-0.075 0.122-0.18 0.122-0.295s-0.047-0.219-0.122-0.295v0zM18.188 4.87c0.151-0.15 0.358-0.243 0.588-0.243 0.46 0 0.833 0.373 0.833 0.833s-0.373 0.833-0.833 0.833c-0 0-0 0-0 0h-0.003c-0.458-0.002-0.829-0.375-0.829-0.833 0-0.231 0.094-0.44 0.246-0.591l0-0h-0.001zM17.206 7.607l-0.468 2.301-0.918-0.924 1.386-1.377zM16.733 6.902l-1.5 1.491-1.161-1.167 2.661-0.325zM18.753 22.5c0.69 0 1.25 0.56 1.25 1.25v0 0.417h-18.333v-0.417c0-0.69 0.56-1.25 1.25-1.25v0h15.833zM12.92 20.833v0.834h-4.167v-0.834h4.167zM8.753 20v-3.167c0-1.011 0.935-1.833 2.083-1.833s2.084 0.823 2.084 1.833v3.167h-4.167zM13.753 18.675v-1.842c0-1.47-1.308-2.666-2.917-2.666-0.014-0-0.030-0-0.046-0-1.057 0-1.984 0.552-2.51 1.384l-0.007 0.012c-1.844-1.939-2.978-4.567-2.978-7.461 0-1.808 0.443-3.512 1.226-5.011l-0.028 0.060 14.533 14.616c-1.424 0.74-3.109 1.173-4.895 1.173-0.843 0-1.663-0.097-2.45-0.279l0.073 0.014zM22.573 18.141l-16.451-16.548 0.589-0.587 6.199 6.234c0.003 0 0.005 0.005 0.007 0.007l10.246 10.306-0.591 0.587z"></path>
<path fill="#2196f3" d="M10.84 15.833h-0.004c-0.001 0-0.001 0-0.002 0-0.69 0-1.25 0.56-1.25 1.25s0.559 1.249 1.248 1.25h0.004c0.001 0 0.001 0 0.002 0 0.69 0 1.25-0.56 1.25-1.25s-0.559-1.249-1.248-1.25h-0zM11.132 17.379c-0.075 0.075-0.179 0.121-0.294 0.121-0.23 0-0.417-0.187-0.417-0.417s0.186-0.416 0.415-0.417h0c0.229 0.001 0.415 0.187 0.415 0.416 0 0.115-0.047 0.22-0.123 0.295l-0 0h0.004z"></path>
</svg>
