<!-- Generated by IcoMoon.io -->
<svg version="1.1" xmlns="http://www.w3.org/2000/svg" width="25" height="25" viewBox="0 0 25 25">
<title>astronaut</title>
<path fill="#2196f3" d="M24.98 3.534c-0.050-0.149-0.178-0.259-0.334-0.283l-0.002-0-1.493-0.217-0.668-1.352c-0.14-0.285-0.607-0.285-0.747 0l-0.668 1.352-1.493 0.217c-0.203 0.030-0.357 0.203-0.357 0.412 0 0.117 0.048 0.222 0.126 0.298l1.081 1.053-0.255 1.486c-0.027 0.156 0.038 0.314 0.165 0.408 0.13 0.094 0.299 0.106 0.439 0.031l1.335-0.702 1.335 0.702c0.056 0.030 0.123 0.048 0.193 0.048 0.23 0 0.417-0.187 0.417-0.417 0-0.025-0.002-0.049-0.006-0.072l0 0.002-0.255-1.486 1.080-1.053c0.078-0.076 0.126-0.182 0.126-0.299 0-0.046-0.007-0.090-0.021-0.131l0.001 0.003zM23.056 4.571c-0.098 0.095-0.143 0.234-0.12 0.369l0.149 0.87-0.781-0.411c-0.056-0.030-0.123-0.048-0.194-0.048s-0.138 0.018-0.197 0.049l0.002-0.001-0.781 0.411 0.149-0.87c0.004-0.021 0.006-0.046 0.006-0.071 0-0.117-0.048-0.222-0.125-0.298l-0-0-0.633-0.617 0.874-0.127c0.136-0.020 0.253-0.105 0.314-0.228l0.391-0.791 0.391 0.791c0.061 0.123 0.178 0.209 0.314 0.228l0.874 0.127-0.632 0.617zM20.417 16.033h-0.833v0.834h0.833v-0.834zM20.417 17.7h-0.833v0.833h0.833v-0.833zM21.25 16.866h-0.833v0.833h0.833v-0.833zM19.584 16.866h-0.834v0.833h0.834v-0.833zM17.5 20.616h-0.833v0.833h0.833v-0.833zM17.5 22.283h-0.833v0.833h0.833v-0.833zM18.334 21.45h-0.834v0.833h0.834v-0.834zM16.667 21.45h-0.834v0.833h0.834v-0.834zM12.5 18.95h-0.833v0.833h0.833v-0.834zM12.5 20.616h-0.833v0.833h0.833v-0.833zM13.333 19.783h-0.833v0.834h0.833v-0.834zM11.667 19.783h-0.834v0.834h0.834v-0.834zM4.583 4.783h-0.833v0.833h0.833v-0.833zM4.583 6.45h-0.833v0.833h0.833v-0.833zM5.416 5.616h-0.833v0.834h0.833v-0.834zM3.75 5.616h-0.834v0.834h0.834v-0.834z"></path>
<path fill="#212121" d="M19.308 11.062c-0.219-0.294-0.546-0.497-0.921-0.55l-0.007-0.001c-0.060-0.009-0.128-0.014-0.198-0.014-0.321 0-0.616 0.109-0.851 0.292l0.003-0.002-0.979 0.75-1.482 1.107-1.061-0.423c1.891-0.849 3.214-2.741 3.214-4.937 0-2.987-2.439-5.417-5.438-5.417s-5.439 2.43-5.439 5.417c0 1.082 0.324 2.089 0.875 2.936l-2.163-0.019c-0.007 0-0.012 0.004-0.018 0.004-0.044 0.002-0.086 0.011-0.124 0.026l0.003-0.001c-0.010 0.004-0.020 0.006-0.030 0.010-0.005 0.002-0.010 0.002-0.015 0.005l-2.526 1.247c-0 0-0.001 0-0.001 0.001l-1.479 0.711c-0.019 0.009-0.035 0.018-0.050 0.028l0.001-0.001c-0.376 0.253-0.621 0.677-0.621 1.158 0 0.232 0.057 0.451 0.157 0.643l-0.004-0.008c0.172 0.331 0.463 0.58 0.815 0.692l0.010 0.003c0.125 0.041 0.27 0.065 0.42 0.065 0.241 0 0.467-0.061 0.665-0.169l-0.007 0.004 1.084-0.576 1.769-0.914 1.060-0.006-4.251 4.231c0 0.001-0.001 0.001-0.001 0.001l-1.046 1.041c-0.237 0.234-0.383 0.558-0.383 0.917 0 0.001 0 0.003 0 0.004v-0c0.001 0.718 0.584 1.3 1.302 1.3 0.001 0 0.001 0 0.002 0h-0c0.334 0 0.668-0.127 0.922-0.379l1.027-1.023 1.36-1.015 0.704 0.701-2.423 2.413c-0.237 0.234-0.383 0.558-0.383 0.917 0 0.001 0 0.002 0 0.003v-0c0 0.348 0.136 0.675 0.383 0.921 0.236 0.234 0.56 0.379 0.919 0.379 0.001 0 0.002 0 0.003 0h-0c0.334 0 0.668-0.126 0.922-0.379l3.506-3.494c0.005-0.005 0.013-0.007 0.018-0.012l4.036-4.42 2.712 0.386c0.020 0.003 0.039 0.004 0.059 0.004 0.050 0 0.099-0.012 0.146-0.030 0.014-0.005 0.025-0.012 0.039-0.018 0.015-0.007 0.031-0.012 0.045-0.021l2.51-1.666c0.009-0.006 0.014-0.016 0.023-0.023 0.010-0.008 0.023-0.011 0.032-0.020l0.993-0.93c0.272-0.254 0.441-0.615 0.441-1.015 0-0.313-0.103-0.601-0.277-0.833l0.003 0.004zM1.664 13.883c-0.077 0.042-0.168 0.067-0.265 0.067-0.061 0-0.12-0.010-0.175-0.028l0.004 0.001c-0.23-0.073-0.394-0.284-0.394-0.534 0-0.184 0.089-0.347 0.226-0.449l0.001-0.001 1.026-0.494 0.247 0.722 0.104 0.304-0.775 0.412zM4.396 12.455l-1.21 0.625-0.199-0.583-0.144-0.419 1.584-0.782-0.031 1.159zM16.193 7.283c0 0.718-0.171 1.394-0.468 2l-3.267-1.484c-0.034-0.449-0.268-0.838-0.611-1.081l-0.005-0.003 1.144-3.798c1.857 0.591 3.206 2.324 3.206 4.366zM6.983 7.283c0-2.527 2.066-4.584 4.605-4.584 0.198 0 0.391 0.017 0.582 0.041l-1.119 3.713c-0.015 0-0.029-0.005-0.045-0.005-0 0-0 0-0.001 0-0.806 0-1.46 0.653-1.462 1.458v0c0.002 0.806 0.656 1.458 1.463 1.458 0 0 0 0 0 0h-0c0.543 0 1.011-0.299 1.264-0.738l3.018 1.371c-0.84 1.13-2.184 1.867-3.701 1.867-2.539 0-4.605-2.056-4.605-4.583zM11.636 7.908c0 0.345-0.283 0.625-0.63 0.625-0 0-0.001 0-0.001 0-0.346 0-0.626-0.279-0.628-0.625v-0c0-0.345 0.282-0.625 0.629-0.625s0.63 0.28 0.63 0.625zM1.925 19.645c-0.086 0.085-0.204 0.138-0.334 0.138s-0.248-0.052-0.334-0.137l0 0c-0.085-0.084-0.138-0.201-0.138-0.33s0.053-0.246 0.137-0.33l0-0 0.752-0.749 0.666 0.662-0.749 0.746zM4.436 22.562c-0.086 0.085-0.204 0.138-0.334 0.138s-0.248-0.052-0.334-0.137l0 0c-0.085-0.084-0.138-0.201-0.138-0.33s0.053-0.246 0.138-0.33l0-0 0.752-0.749 0.665 0.662-0.75 0.746zM7.156 19.852l-0.001 0.001-1.379 1.375-0.666-0.662 1.379-1.373c0.031-0.031 0.051-0.069 0.070-0.106 0.005-0.011 0.016-0.020 0.020-0.031 0.013-0.032 0.015-0.067 0.020-0.1 0.002-0.019 0.011-0.037 0.011-0.057 0-0.027-0.010-0.055-0.016-0.082-0.005-0.025-0.005-0.050-0.015-0.075-0.019-0.041-0.043-0.077-0.072-0.108l0 0c-0.008-0.009-0.011-0.021-0.019-0.030h-0.001s0-0.001-0.001-0.002l-1.255-1.25c-0.013-0.013-0.030-0.019-0.045-0.030-0.020-0.016-0.042-0.031-0.066-0.044l-0.002-0.001c-0.021-0.010-0.045-0.018-0.070-0.024l-0.003-0.001c-0.023-0.007-0.051-0.013-0.079-0.016l-0.002-0c-0.005-0-0.012-0-0.018-0-0.020 0-0.040 0.001-0.059 0.004l0.002-0c-0.028 0.004-0.054 0.007-0.081 0.016s-0.050 0.021-0.074 0.035c-0.016 0.009-0.033 0.012-0.048 0.023l-1.386 1.034-0.704-0.701 1.874-1.864 3.406 3.351-0.725 0.718zM12.484 14.37c-0.012-0.002-0.024 0.003-0.036 0.002-0.006-0-0.013-0.001-0.021-0.001-0.024 0-0.048 0.002-0.072 0.006l0.002-0c-0.054 0.009-0.103 0.027-0.146 0.055l0.002-0.001c-0.023 0.014-0.044 0.029-0.065 0.048-0.010 0.009-0.022 0.013-0.031 0.023l-3.67 4.020-3.381-3.325 2.213-2.202c0.075-0.075 0.122-0.18 0.122-0.295 0-0.23-0.187-0.417-0.417-0.417-0 0-0.001 0-0.001 0h0l-1.734 0.010 0.022-1.256 2.425 0.021c0.987 1.013 2.365 1.641 3.889 1.641 0.001 0 0.002 0 0.003 0h-0c0.342 0 0.675-0.036 1-0.096 0.031 0.025 0.062 0.050 0.101 0.066l1.883 0.75 0.119 0.593 0.139 0.692-2.346-0.334zM15.641 14.51l-0.245-1.217 1.13-0.844 0.739 0.982-1.625 1.079zM18.573 12.298l-0.654 0.613-0.727-0.966 0.649-0.498c0.121-0.093 0.274-0.131 0.424-0.112 0.151 0.021 0.284 0.1 0.375 0.222 0.069 0.092 0.11 0.207 0.11 0.333 0 0.161-0.068 0.305-0.176 0.407l-0 0z"></path>
<path fill="#212121" d="M10.627 14.488l-1.674-1.667c-0.075-0.075-0.179-0.121-0.294-0.121s-0.219 0.046-0.294 0.121l-1.674 1.667c-0.075 0.076-0.122 0.18-0.122 0.295s0.047 0.22 0.122 0.295l-0-0 1.674 1.667c0.075 0.075 0.179 0.122 0.294 0.122s0.219-0.046 0.294-0.122v0l1.674-1.667c0.076-0.075 0.123-0.18 0.123-0.295s-0.047-0.22-0.123-0.295l-0-0zM8.659 15.862l-1.084-1.079 1.083-1.079 1.084 1.079-1.084 1.079zM13.41 3.961l-0.201 0.809c0.056 0.014 1.357 0.353 1.357 1.679h0.834c0-1.576-1.301-2.316-1.99-2.488zM15.399 7.283h-0.834v0.833h0.834v-0.833z"></path>
</svg>
