<!-- Generated by IcoMoon.io -->
<svg version="1.1" xmlns="http://www.w3.org/2000/svg" width="34" height="25" viewBox="0 0 34 25">
<title>brand</title>
<path fill="#afb1b8" d="M2.53 20.604c0.13 0.147 0.198 0.331 0.195 0.52 0.001 0.012 0.001 0.025 0.001 0.039 0 0.116-0.026 0.226-0.073 0.325l0.002-0.005c-0.056 0.118-0.135 0.218-0.231 0.296l-0.002 0.001c-0.22 0.152-0.493 0.242-0.787 0.242-0.032 0-0.064-0.001-0.096-0.003l0.004 0h-1.545v-3.293h1.513c0.027-0.002 0.058-0.003 0.089-0.003 0.278 0 0.537 0.082 0.754 0.224l-0.005-0.003c0.098 0.076 0.176 0.17 0.226 0.277 0.051 0.107 0.074 0.223 0.068 0.34 0.009 0.181-0.053 0.36-0.176 0.503-0.118 0.131-0.28 0.221-0.461 0.257 0.205 0.034 0.39 0.134 0.521 0.282zM0.719 20.107h0.647c0.147 0.010 0.293-0.029 0.411-0.11 0.047-0.039 0.084-0.088 0.109-0.144l0.001-0.003c0.019-0.043 0.030-0.092 0.030-0.144 0-0.011-0-0.022-0.001-0.033l0 0.001c0.001-0.008 0.001-0.018 0.001-0.028 0-0.053-0.011-0.104-0.031-0.15l0.001 0.002c-0.025-0.058-0.062-0.107-0.107-0.146l-0.001-0c-0.104-0.071-0.233-0.113-0.372-0.113-0.018 0-0.036 0.001-0.054 0.002l0.002-0h-0.637v0.864zM1.84 21.37c0.050-0.040 0.091-0.091 0.118-0.149l0.001-0.003c0.022-0.046 0.034-0.1 0.034-0.157 0-0.009-0-0.018-0.001-0.027l0 0.001c0-0.007 0.001-0.016 0.001-0.024 0-0.059-0.013-0.115-0.037-0.164l0.001 0.002c-0.029-0.061-0.070-0.111-0.12-0.151l-0.001-0.001c-0.111-0.075-0.248-0.12-0.396-0.12-0.015 0-0.030 0-0.045 0.001l0.002-0h-0.678v0.906h0.687c0.154 0.008 0.307-0.032 0.434-0.114zM5.622 22.020l-0.841-1.287h-0.316v1.287h-0.724v-3.293h1.371c0.029-0.002 0.063-0.003 0.098-0.003 0.322 0 0.62 0.106 0.86 0.286l-0.004-0.003c0.191 0.179 0.307 0.414 0.326 0.664 0.002 0.021 0.002 0.045 0.002 0.069 0 0.24-0.085 0.46-0.228 0.631l0.001-0.002c-0.17 0.175-0.395 0.296-0.647 0.334l-0.006 0.001 0.896 1.316h-0.787zM4.465 20.284h0.592c0.411 0 0.617-0.166 0.617-0.498 0-0.008 0.001-0.017 0.001-0.027 0-0.062-0.013-0.122-0.035-0.176l0.001 0.003c-0.028-0.067-0.068-0.124-0.117-0.171l-0-0c-0.112-0.085-0.255-0.136-0.409-0.136-0.020 0-0.040 0.001-0.060 0.003l0.003-0h-0.599l0.007 1.002zM9.58 21.356h-1.443l-0.255 0.663h-0.759l1.324-3.256h0.821l1.32 3.256h-0.759l-0.249-0.663zM9.387 20.858l-0.527-1.39-0.527 1.39h1.054zM14.533 22.020h-0.718l-1.612-2.239v2.239h-0.717v-3.294h0.717l1.612 2.253v-2.253h0.718v3.294zM18.635 21.231c-0.149 0.248-0.375 0.451-0.651 0.581-0.279 0.131-0.607 0.208-0.952 0.208-0.021 0-0.041-0-0.062-0.001l0.003 0h-1.279v-3.293h1.279c0.018-0 0.039-0.001 0.060-0.001 0.344 0 0.671 0.075 0.965 0.209l-0.015-0.006c0.275 0.128 0.502 0.328 0.65 0.574 0.148 0.268 0.225 0.564 0.225 0.864s-0.077 0.596-0.225 0.864zM17.812 21.153c0.195-0.204 0.316-0.481 0.318-0.786v-0c0-0.288-0.113-0.567-0.318-0.786-0.223-0.176-0.508-0.283-0.818-0.283-0.029 0-0.058 0.001-0.086 0.003l0.004-0h-0.499v2.132h0.499c0.025 0.002 0.054 0.003 0.083 0.003 0.31 0 0.595-0.106 0.82-0.284l-0.003 0.002zM10.030 0.408s9.276 3.206 9.079 7.846v7.848s-9.269-3.207-9.076-7.848l-0.003-7.846zM27.372 14.265c1.752-1.104 3.778-1.787 5.894-1.988v-2.457c-2.437 0.861-4.505 2.42-5.894 4.446z"></path>
<path fill="#afb1b8" d="M26.32 15.005c1.434-2.644 3.919-4.684 6.946-5.701v-7.079s-13.21 4.568-12.931 11.175v11.173s0.589-0.204 1.515-0.587c0-0.357 0-0.718 0.043-1.080 0.273-3.067 1.865-5.91 4.428-7.903z"></path>
<path fill="#afb1b8" d="M25.064 19.156c0.069-0.775 0.224-1.541 0.462-2.288-1.596 1.721-2.562 3.856-2.762 6.106-0.020 0.212-0.030 0.424-0.035 0.644 1.102-0.482 1.936-0.892 2.753-1.33l-0.213 0.104c-0.234-1.064-0.303-2.154-0.205-3.236zM25.589 19.196c-0.026 0.272-0.041 0.588-0.041 0.907 0 0.716 0.074 1.415 0.216 2.089l-0.012-0.066c3.609-1.978 7.665-5.033 7.508-8.725v-0.322c-2.579 0.264-4.991 1.296-6.867 2.938-0.414 0.93-0.7 2.008-0.801 3.14l-0.003 0.040z"></path>
</svg>
