<!-- Generated by IcoMoon.io -->
<svg version="1.1" xmlns="http://www.w3.org/2000/svg" width="25" height="25" viewBox="0 0 25 25">
<title>clock</title>
<path fill="#212121" d="M24.45 11.954c-0.001-6.603-5.355-11.955-11.959-11.954s-11.955 5.356-11.954 11.959c0.001 5.303 3.455 9.799 8.235 11.363l0.085 0.024c0.048 0.015 0.096 0.023 0.146 0.023 0.094 0 0.186-0.025 0.267-0.073 0.106-0.063 0.184-0.162 0.221-0.279l3.019-9.57c0.823-0.003 1.489-0.671 1.489-1.494 0-0.825-0.669-1.494-1.494-1.494-0.237 0-0.461 0.055-0.66 0.153l0.009-0.004-3.989-3.99c-0.089-0.086-0.211-0.139-0.346-0.139-0.275 0-0.498 0.223-0.498 0.498 0 0.134 0.053 0.256 0.14 0.346l-0-0 3.987 3.991c-0.094 0.188-0.15 0.41-0.15 0.645 0 0.47 0.221 0.888 0.565 1.157l0.003 0.002-2.877 9.12c-5.686-2.095-8.597-8.402-6.503-14.088s8.401-8.597 14.088-6.502c5.686 2.094 8.597 8.401 6.502 14.087-1.051 2.798-3.128 5.005-5.761 6.202l-0.069 0.028-0.311-1.464c-0.049-0.227-0.249-0.395-0.487-0.395-0.128 0-0.244 0.048-0.333 0.127l0-0-2.998 2.676c-0.103 0.092-0.167 0.224-0.167 0.372 0 0.221 0.144 0.409 0.344 0.474l0.004 0.001 3.827 1.221c0.046 0.015 0.098 0.024 0.153 0.024 0.275 0 0.498-0.223 0.498-0.498 0-0.037-0.004-0.073-0.012-0.108l0.001 0.003-0.305-1.436c4.318-1.855 7.288-6.072 7.288-10.982 0-0.009 0-0.018-0-0.027v0.001zM12.494 11.456c0.275 0 0.498 0.223 0.498 0.498s-0.223 0.498-0.498 0.498v0c-0.275 0-0.498-0.223-0.498-0.498s0.223-0.498 0.498-0.498v0zM14.135 23.069l1.706-1.522 0.471 2.219-2.177-0.697z"></path>
<path fill="#2196f3" d="M11.996 2.488v0.996c0 0.275 0.223 0.498 0.498 0.498s0.498-0.223 0.498-0.498v0-0.996c0-0.275-0.223-0.498-0.498-0.498s-0.498 0.223-0.498 0.498v0zM3.028 11.456c-0.275 0-0.498 0.223-0.498 0.498s0.223 0.498 0.498 0.498h0.996c0.275 0 0.498-0.223 0.498-0.498s-0.223-0.498-0.498-0.498h-0.996zM21.96 12.452c0.275 0 0.498-0.223 0.498-0.498s-0.223-0.498-0.498-0.498h-0.996c-0.275 0-0.498 0.223-0.498 0.498s0.223 0.498 0.498 0.498h0.996z"></path>
</svg>
