<!-- Generated by IcoMoon.io -->
<svg version="1.1" xmlns="http://www.w3.org/2000/svg" width="27" height="25" viewBox="0 0 27 25">
<title>company-second</title>
<path fill="#afb1b8" d="M4.408 24.465c0.010 0 0.019 0.002 0.027 0.006s0.017 0.008 0.023 0.014l-0-0 0.13 0.124c-0.101 0.101-0.226 0.181-0.365 0.236-0.144 0.054-0.31 0.085-0.484 0.085-0.012 0-0.024-0-0.035-0l0.002 0c-0.167 0.003-0.332-0.024-0.486-0.079-0.142-0.052-0.264-0.127-0.367-0.223l0.001 0.001c-0.1-0.095-0.181-0.209-0.235-0.337l-0.002-0.007c-0.052-0.127-0.083-0.274-0.083-0.428 0-0.005 0-0.010 0-0.014v0.001c-0-0.007-0-0.015-0-0.023 0-0.303 0.131-0.576 0.34-0.763l0.001-0.001c0.111-0.097 0.243-0.173 0.389-0.224 0.16-0.054 0.33-0.080 0.502-0.079 0.009-0 0.020-0 0.031-0 0.156 0 0.305 0.026 0.444 0.075l-0.009-0.003c0.129 0.049 0.247 0.116 0.349 0.199l-0.109 0.132c-0.008 0.009-0.017 0.017-0.027 0.024l-0 0c-0.011 0.006-0.024 0.010-0.038 0.010-0.002 0-0.004-0-0.006-0l0 0c-0.018-0.001-0.034-0.006-0.048-0.014l0.001 0-0.058-0.036-0.082-0.045c-0.074-0.036-0.16-0.064-0.251-0.078l-0.005-0.001c-0.054-0.009-0.116-0.014-0.179-0.014-0.005 0-0.010 0-0.015 0h0.001c-0.004-0-0.008-0-0.012-0-0.125 0-0.245 0.022-0.356 0.062l0.007-0.002c-0.109 0.038-0.203 0.095-0.283 0.167l0.001-0.001c-0.081 0.076-0.143 0.167-0.183 0.265-0.042 0.1-0.066 0.216-0.066 0.337 0 0.004 0 0.009 0 0.013v-0.001c-0 0.004-0 0.009-0 0.015 0 0.123 0.024 0.24 0.068 0.347l-0.002-0.006c0.040 0.098 0.101 0.187 0.18 0.264 0.074 0.071 0.167 0.128 0.27 0.164 0.106 0.038 0.22 0.057 0.334 0.057 0.066 0.001 0.133-0.003 0.198-0.011 0.165-0.017 0.312-0.083 0.43-0.183l-0.001 0.001c0.017-0.014 0.038-0.022 0.061-0.023h0zM8.157 23.842c0 0.004 0 0.009 0 0.013 0 0.154-0.032 0.3-0.090 0.432l0.003-0.007c-0.058 0.134-0.14 0.248-0.243 0.34l-0.001 0.001c-0.108 0.096-0.236 0.172-0.376 0.221l-0.008 0.002c-0.147 0.050-0.317 0.079-0.493 0.079s-0.346-0.029-0.505-0.082l0.011 0.003c-0.147-0.052-0.274-0.129-0.382-0.225l0.001 0.001c-0.104-0.094-0.188-0.209-0.245-0.338l-0.003-0.006c-0.055-0.13-0.088-0.281-0.088-0.439s0.032-0.309 0.090-0.446l-0.003 0.007c0.055-0.129 0.139-0.246 0.247-0.345 0.108-0.095 0.238-0.168 0.381-0.216 0.147-0.051 0.317-0.080 0.493-0.080s0.346 0.029 0.504 0.084l-0.011-0.003c0.144 0.051 0.274 0.127 0.383 0.224 0.107 0.098 0.19 0.214 0.245 0.34 0.060 0.142 0.090 0.291 0.088 0.442zM7.817 23.842c0-0.005 0-0.012 0-0.018 0-0.12-0.023-0.235-0.064-0.341l0.002 0.006c-0.079-0.203-0.241-0.359-0.443-0.428l-0.005-0.002c-0.107-0.037-0.23-0.058-0.359-0.058s-0.252 0.021-0.367 0.060l0.008-0.002c-0.107 0.038-0.198 0.095-0.275 0.167l0-0c-0.076 0.072-0.136 0.16-0.174 0.259l-0.002 0.005c-0.039 0.105-0.062 0.226-0.062 0.352s0.023 0.248 0.064 0.36l-0.002-0.007c0.079 0.204 0.242 0.359 0.445 0.427l0.005 0.001c0.231 0.076 0.486 0.076 0.717 0 0.104-0.036 0.198-0.093 0.274-0.165 0.078-0.077 0.137-0.167 0.174-0.264 0.043-0.113 0.064-0.233 0.062-0.352zM10.715 24.211l0.034 0.079c0.013-0.028 0.024-0.054 0.038-0.079 0.014-0.031 0.029-0.056 0.044-0.080l-0.002 0.003 0.829-1.31c0.017-0.023 0.031-0.037 0.048-0.041s0.037-0.007 0.057-0.007c0.004 0 0.008 0 0.011 0l-0.001-0h0.245v2.131h-0.29v-1.633c-0.001-0.011-0.001-0.024-0.001-0.037s0-0.026 0.001-0.039l-0 0.002-0.835 1.329c-0.011 0.021-0.028 0.037-0.048 0.048l-0.001 0c-0.020 0.011-0.044 0.018-0.070 0.018-0 0-0.001 0-0.001 0h-0.047c-0.001 0-0.001 0-0.002 0-0.026 0-0.050-0.007-0.070-0.018l0.001 0c-0.021-0.011-0.037-0.028-0.048-0.048l-0-0.001-0.859-1.337v1.71h-0.28v-2.126h0.245c0.003-0 0.007-0 0.011-0 0.020 0 0.040 0.003 0.059 0.008l-0.002-0c0.020 0.009 0.036 0.023 0.045 0.041l0.847 1.311c0.015 0.022 0.029 0.047 0.041 0.073l0.001 0.003zM13.836 24.105v0.798h-0.324v-2.127h0.724c0.137-0.002 0.273 0.014 0.404 0.046 0.105 0.026 0.202 0.071 0.286 0.133 0.069 0.055 0.124 0.125 0.16 0.205l0.001 0.003c0.039 0.087 0.057 0.18 0.055 0.273 0 0.004 0 0.009 0 0.013 0 0.192-0.092 0.363-0.234 0.471l-0.001 0.001c-0.083 0.064-0.182 0.112-0.287 0.14-0.11 0.032-0.235 0.050-0.365 0.050-0.009 0-0.018-0-0.027-0l-0.392-0.006zM13.836 23.877h0.393c0.085 0.001 0.17-0.010 0.252-0.032 0.069-0.020 0.13-0.052 0.183-0.093l-0.001 0.001c0.091-0.075 0.149-0.189 0.149-0.315 0-0.002 0-0.003-0-0.005v0c0-0.007 0.001-0.015 0.001-0.023 0-0.055-0.012-0.106-0.034-0.153l0.001 0.002c-0.027-0.058-0.066-0.106-0.112-0.145l-0.001-0.001c-0.108-0.073-0.242-0.116-0.385-0.116-0.018 0-0.036 0.001-0.054 0.002l0.002-0h-0.393v0.877zM18.198 24.906h-0.256c-0.001 0-0.003 0-0.005 0-0.025 0-0.048-0.007-0.067-0.020l0 0c-0.018-0.013-0.033-0.029-0.043-0.049l-0-0.001-0.22-0.514h-1.109l-0.229 0.514c-0.020 0.041-0.062 0.069-0.11 0.069-0.001 0-0.002-0-0.003-0h-0.257l0.974-2.131h0.337l0.987 2.131zM16.591 24.115h0.915l-0.386-0.867c-0.030-0.065-0.054-0.132-0.073-0.2l-0.038 0.111c-0.011 0.034-0.024 0.065-0.036 0.090l-0.383 0.865zM19.601 22.786c0.019 0.009 0.036 0.022 0.048 0.037l1.42 1.607v-1.654h0.29v2.131h-0.162c-0.001 0-0.002 0-0.004 0-0.023 0-0.044-0.005-0.064-0.014l0.001 0c-0.020-0.010-0.037-0.023-0.052-0.039l-0-0-1.418-1.605c0.001 0.011 0.001 0.024 0.001 0.037s-0 0.026-0.001 0.038l0-0.002v1.583h-0.29v-2.131h0.172c0.020 0 0.040 0.004 0.058 0.010zM23.752 24.059v0.846h-0.324v-0.845l-0.898-1.283h0.29c0.002-0 0.005-0 0.007-0 0.023 0 0.045 0.007 0.063 0.018l-0-0c0.018 0.014 0.033 0.030 0.044 0.048l0.561 0.828c0.023 0.036 0.042 0.068 0.058 0.099s0.030 0.061 0.041 0.090l0.042-0.092c0.016-0.033 0.035-0.065 0.055-0.097l0.554-0.833c0.012-0.017 0.026-0.032 0.041-0.045l0-0c0.018-0.013 0.040-0.021 0.064-0.021 0.002 0 0.004 0 0.006 0l-0-0h0.293l-0.899 1.289zM10.554 19.2c0.141 0.015 0.284 0.028 0.429 0.039 2.19-0.851 4.042-2.244 5.326-4.005s1.941-3.811 1.891-5.895l-2.414-2.096c0.491 2.218 0.262 4.512-0.662 6.624s-2.506 3.958-4.57 5.333z"></path>
<path fill="#afb1b8" d="M9.693 19.102l0.065 0.012c2.205-1.371 3.885-3.284 4.825-5.493s1.095-4.613 0.446-6.899l-3.438-2.986c1.39 2.455 1.95 5.202 1.613 7.923-0.336 2.72-1.554 5.301-3.512 7.443zM21.35 11.801c-0.584 2.29-2.002 4.355-4.045 5.889-0.558 0.424-1.187 0.822-1.849 1.164l-0.072 0.034c1.663-0.424 3.191-1.175 4.467-2.194s2.266-2.279 2.893-3.683l-1.394-1.21z"></path>
<path fill="#afb1b8" d="M20.803 11.464l-1.985-1.724c-0.038 1.966-0.682 3.888-1.863 5.564s-2.86 3.049-4.857 3.972h0.010c0.445 0 0.89-0.024 1.332-0.069 1.867-0.662 3.517-1.716 4.802-3.067s2.165-2.957 2.561-4.676zM9.98 2.476l-2.368-2.060c-2.117 0.711-3.937 1.96-5.223 3.585s-1.977 3.549-1.984 5.52c0.008 2.179 0.852 4.293 2.399 6.008 1.546 1.714 3.707 2.933 6.139 3.461 2.171-2.299 3.443-5.139 3.63-8.109s-0.722-5.914-2.593-8.405zM26.274 11.147c-0.008-2.585-1.194-5.061-3.298-6.889s-4.955-2.858-7.93-2.865c-0.007 0-0.014-0-0.022-0-1.43 0-2.805 0.238-4.086 0.677l0.089-0.026 14.497 12.595c0.472-1.026 0.749-2.226 0.75-3.491v-0.001z"></path>
</svg>
