<!-- Generated by IcoMoon.io -->
<svg version="1.1" xmlns="http://www.w3.org/2000/svg" width="29" height="25" viewBox="0 0 29 25">
<title>company</title>
<path fill="#afb1b8" d="M12.224 2.096h-0.098c-0.15-0.009-0.3-0.013-0.45-0.016h-0.325c-0.284 0-0.573 0.007-0.86 0.021-0.010-0.001-0.021-0.001-0.032-0.001s-0.023 0-0.034 0.001l0.001-0c-2.758 0.161-5.318 0.851-7.633 1.969l0.121-0.053-0.309 0.149v15.816l0.723-0.246c0.634-0.218 1.31-0.414 2.009-0.596 1.728-0.462 3.716-0.741 5.765-0.768l0.017-0v2.078c-0.259 0.001-0.509 0.009-0.761 0.021h-0.060c-1.624 0.091-3.145 0.335-4.609 0.719l0.161-0.036c-2.013 0.512-3.777 1.219-5.416 2.125l0.116-0.059v-20.284c1.601-0.952 3.453-1.727 5.414-2.229l0.147-0.032c1.57-0.422 3.374-0.668 5.235-0.676l0.004-0h0.305c0.365 0.009 0.721 0.026 1.056 0.051 0.963 0.069 1.854 0.217 2.715 0.439l-0.105-0.023v2.045c-0.729-0.179-1.593-0.314-2.477-0.378l-0.053-0.003-0.051-0.004c-0.176-0.015-0.353-0.030-0.517-0.030zM15.824 4.186c0.454 0.035 0.924 0.051 1.399 0.051 1.961-0.008 3.858-0.265 5.666-0.742l-0.157 0.035c2.012-0.514 3.775-1.221 5.414-2.126l-0.117 0.059v19.921c-1.601 0.951-3.453 1.726-5.414 2.229l-0.148 0.032c-1.571 0.421-3.375 0.666-5.236 0.674l-0.005 0c-0.038 0-0.083 0.001-0.129 0.001-1.366 0-2.691-0.171-3.957-0.493l0.111 0.024v-20.051c0.307 0.071 0.624 0.136 0.945 0.191 0.528 0.089 1.084 0.154 1.626 0.194zM25.962 4.341l-0.723 0.243c-0.664 0.224-1.336 0.424-2.009 0.601-1.8 0.482-3.868 0.762-6 0.77l-0.005 0c-0.471 0-0.905-0.013-1.324-0.040l-0.576-0.038v16.269l0.495 0.043c0.459 0.041 0.932 0.061 1.409 0.061 1.683-0.007 3.312-0.23 4.863-0.642l-0.134 0.030c1.417-0.36 2.647-0.815 3.813-1.38l-0.118 0.052 0.309-0.149v-15.82z"></path>
</svg>
