<!-- Generated by IcoMoon.io -->
<svg version="1.1" xmlns="http://www.w3.org/2000/svg" width="25" height="25" viewBox="0 0 25 25">
<title>diagram</title>
<path fill="#2196f3" d="M11.661 11.691h0.833v3.748h-0.833v-3.748zM14.992 13.357h0.833v2.082h-0.833v-2.082zM8.329 14.606h0.833v0.833h-0.833v-0.833zM5.83 14.19h0.833v1.249h-0.833v-1.249z"></path>
<path fill="#212121" d="M1.249 22.102h19.989c0 0 0 0 0 0 0.69 0 1.249-0.559 1.249-1.249v0-1.666c0-0.69-0.559-1.249-1.249-1.249v0h-0.416v-10.386l2.365-2.241c0.162 0.082 0.353 0.129 0.555 0.129 0.694 0 1.256-0.563 1.256-1.256s-0.563-1.256-1.256-1.256c-0.694 0-1.256 0.563-1.256 1.256 0 0.193 0.043 0.376 0.121 0.539l-0.003-0.008-1.782 1.689v-0.961c0-0.69-0.559-1.249-1.249-1.249v0h-16.658c-0.69 0-1.249 0.559-1.249 1.249v0 12.494h-0.416c-0.69 0-1.249 0.559-1.249 1.249v0 1.666c0 0.69 0.559 1.249 1.249 1.249v0zM23.738 3.779c0.23 0 0.416 0.186 0.416 0.416s-0.186 0.416-0.416 0.416v0c-0.23 0-0.416-0.186-0.416-0.416s0.186-0.416 0.416-0.416v0zM2.499 5.444c0-0.23 0.186-0.416 0.416-0.416h16.658c0.23 0 0.416 0.186 0.416 0.416v1.749l-0.833 0.791v-1.707c0-0.23-0.187-0.417-0.417-0.417h-14.992c-0.23 0-0.417 0.186-0.417 0.416v10.411c0 0.23 0.187 0.416 0.417 0.416h14.992c0.23 0 0.417-0.186 0.417-0.416v-7.558l0.833-0.789v9.596h-17.491v-12.493zM6.247 10.858c-0.001 0-0.002 0-0.004 0-0.69 0-1.249 0.559-1.249 1.249s0.559 1.249 1.249 1.249c0.338 0 0.644-0.134 0.869-0.352l-0 0 1.448 0.726c0.168 0.084 0.372 0.045 0.497-0.096l3.077-3.462 3.025 2.267c0.162 0.121 0.389 0.109 0.536-0.031l2.629-2.49v6.352h-14.159v-9.579h14.159v2.079l-2.946 2.79-3.050-2.287c-0.069-0.052-0.156-0.083-0.25-0.083-0.124 0-0.235 0.054-0.311 0.139l-0 0-3.119 3.51-1.166-0.583c0.008-0.050 0.014-0.1 0.016-0.151 0-0.69-0.559-1.249-1.249-1.249v0zM6.663 12.107c0 0.23-0.186 0.416-0.416 0.416s-0.416-0.186-0.416-0.416v0c0-0.23 0.186-0.416 0.416-0.416s0.416 0.186 0.416 0.416v0zM9.162 18.771h4.164v0.416c0 0.23-0.186 0.416-0.416 0.416h-3.332c-0.23 0-0.416-0.186-0.416-0.416v0-0.416zM0.833 19.187c0-0.23 0.186-0.416 0.416-0.416h7.080v0.416c0 0.69 0.559 1.249 1.249 1.249v0h3.332c0.69 0 1.249-0.559 1.249-1.249v0-0.416h7.080c0.23 0 0.416 0.186 0.416 0.416v1.666c0 0.23-0.186 0.416-0.416 0.416h-19.989c-0 0-0 0-0 0-0.23 0-0.416-0.186-0.416-0.416 0 0 0 0 0 0v0-1.666z"></path>
</svg>
