<!-- Generated by IcoMoon.io -->
<svg version="1.1" xmlns="http://www.w3.org/2000/svg" width="33" height="25" viewBox="0 0 33 25">
<title>envelope</title>
<path fill="#2196f3" d="M30.208 0h-27.083c-1.723 0-3.125 1.402-3.125 3.125v18.75c0 1.723 1.402 3.125 3.125 3.125h27.083c1.723 0 3.125-1.402 3.125-3.125v-18.75c0-1.723-1.402-3.125-3.125-3.125zM30.208 2.083c0.142 0 0.277 0.029 0.4 0.081l-13.942 12.083-13.942-12.083c0.118-0.051 0.255-0.081 0.4-0.081h27.083zM30.208 22.917h-27.083c-0.575 0-1.042-0.466-1.042-1.042v0-17.51l13.9 12.048c0.182 0.159 0.421 0.255 0.683 0.255s0.501-0.097 0.685-0.257l-0.001 0.001 13.9-12.048v17.51c0 0.575-0.466 1.042-1.042 1.042v0z"></path>
</svg>
