<!-- Generated by IcoMoon.io -->
<svg version="1.1" xmlns="http://www.w3.org/2000/svg" width="51" height="25" viewBox="0 0 51 25">
<title>foster-peters</title>
<path fill="#2196f3" d="M7.825 7.799h-0.002c-1.427 0-2.585 1.028-2.585 2.297v0.001c0 1.268 1.157 2.297 2.585 2.297h0.002c1.427 0 2.585-1.029 2.585-2.297v-0.001c0-1.269-1.157-2.298-2.585-2.298zM26.902 7.065c-0.004-1.762-0.793-3.451-2.195-4.697s-3.302-1.948-5.284-1.952c-1.983 0.003-3.885 0.705-5.287 1.951s-2.192 2.935-2.196 4.698v9.716s14.961-1.481 14.963-9.714v-0.002zM0 19.97c0.004 1.226 0.554 2.401 1.529 3.268s2.297 1.355 3.676 1.359c1.379-0.004 2.701-0.492 3.676-1.359s1.525-2.041 1.529-3.267v-6.761s-10.41 1.032-10.41 6.76zM5.205 21.181c-0.27 0-0.533-0.071-0.757-0.204-0.218-0.128-0.39-0.314-0.499-0.536l-0.003-0.007c-0.065-0.136-0.103-0.295-0.103-0.463 0-0.084 0.009-0.166 0.028-0.244l-0.001 0.007c0.052-0.235 0.182-0.451 0.373-0.62 0.19-0.167 0.427-0.284 0.689-0.33l0.009-0.001c0.080-0.015 0.172-0.023 0.266-0.023 0.187 0 0.366 0.034 0.532 0.095l-0.011-0.003c0.249 0.092 0.463 0.247 0.612 0.446s0.23 0.433 0.23 0.673c0.001 0.16-0.034 0.318-0.102 0.465-0.074 0.155-0.173 0.286-0.294 0.393l-0.001 0.001c-0.126 0.113-0.277 0.202-0.443 0.264-0.155 0.059-0.334 0.093-0.522 0.093-0 0-0.001 0-0.001 0h0v-0.005zM15.725 20.514h-1.005v1.037h-0.523v-2.54h1.654v0.424h-1.13v0.656h1.005v0.422zM18.239 20.34c0 0.25-0.044 0.469-0.132 0.657s-0.215 0.333-0.381 0.436c-0.155 0.097-0.344 0.154-0.546 0.154-0.007 0-0.013-0-0.020-0l0.001 0c-0.211 0-0.399-0.051-0.564-0.152-0.167-0.105-0.298-0.252-0.381-0.427l-0.003-0.006c-0.087-0.184-0.138-0.4-0.138-0.628 0-0.007 0-0.015 0-0.022l-0 0.001v-0.125c0-0.25 0.045-0.47 0.135-0.66 0.090-0.19 0.218-0.337 0.382-0.437 0.165-0.102 0.353-0.154 0.565-0.154s0.399 0.051 0.563 0.154c0.165 0.101 0.292 0.247 0.382 0.437 0.090 0.189 0.136 0.408 0.136 0.657v0.113zM17.71 20.224c0-0.266-0.048-0.468-0.143-0.607-0.085-0.126-0.227-0.208-0.388-0.208-0.007 0-0.014 0-0.022 0l0.001-0c-0.006-0-0.013-0-0.020-0-0.16 0-0.302 0.081-0.386 0.205l-0.001 0.002c-0.095 0.136-0.143 0.336-0.145 0.6v0.124c0 0.259 0.048 0.46 0.143 0.603s0.232 0.214 0.412 0.214c0.006 0 0.013 0 0.021 0 0.16 0 0.3-0.081 0.383-0.204l0.001-0.002c0.094-0.138 0.142-0.339 0.143-0.604v-0.124zM19.936 20.885c0-0.004 0-0.010 0-0.015 0-0.086-0.041-0.162-0.104-0.211l-0.001-0c-0.070-0.054-0.195-0.11-0.377-0.167-0.167-0.052-0.31-0.111-0.446-0.182l0.015 0.007c-0.289-0.156-0.433-0.366-0.433-0.63 0-0.137 0.038-0.26 0.115-0.366 0.078-0.108 0.189-0.192 0.333-0.253 0.145-0.060 0.308-0.090 0.488-0.090 0.182 0 0.343 0.033 0.485 0.099 0.142 0.065 0.252 0.157 0.329 0.277 0.079 0.119 0.119 0.256 0.119 0.408h-0.524c0-0.116-0.036-0.207-0.11-0.27-0.073-0.065-0.176-0.098-0.308-0.098-0.128 0-0.227 0.027-0.298 0.082-0.065 0.047-0.107 0.122-0.107 0.207 0 0.002 0 0.004 0 0.006v-0c0 0.083 0.042 0.152 0.124 0.208 0.083 0.055 0.207 0.108 0.368 0.157 0.298 0.089 0.514 0.201 0.651 0.333s0.204 0.298 0.204 0.495c0 0.22-0.083 0.393-0.25 0.518s-0.389 0.187-0.671 0.187c-0.195 0-0.373-0.036-0.534-0.107-0.151-0.064-0.275-0.165-0.366-0.291l-0.002-0.003c-0.078-0.117-0.125-0.261-0.125-0.417 0-0.006 0-0.011 0-0.017l-0 0.001h0.524c0 0.28 0.167 0.42 0.502 0.42 0.124 0 0.221-0.025 0.292-0.075 0.064-0.046 0.104-0.119 0.104-0.203 0-0.003-0-0.007-0-0.010l0 0zM22.728 19.436h-0.777v2.115h-0.524v-2.115h-0.766v-0.424h2.068v0.424zM24.555 20.451h-1.004v0.68h1.179v0.42h-1.702v-2.54h1.699v0.424h-1.176v0.605h1.005v0.41zM25.977 20.622h-0.417v0.93h-0.523v-2.54h0.943c0.3 0 0.532 0.067 0.694 0.201s0.244 0.323 0.244 0.567c0 0.173-0.038 0.318-0.113 0.435-0.084 0.122-0.2 0.217-0.335 0.274l-0.005 0.002 0.549 1.037v0.024h-0.561l-0.476-0.929zM25.56 20.198h0.423c0.131 0 0.232-0.033 0.305-0.099 0.067-0.066 0.108-0.157 0.108-0.258 0-0.007-0-0.014-0.001-0.020l0 0.001c0-0.12-0.034-0.214-0.102-0.283s-0.171-0.103-0.313-0.103h-0.42v0.762zM28.73 20.657v0.895h-0.523v-2.54h0.99c0.19 0 0.358 0.035 0.502 0.105 0.145 0.070 0.257 0.169 0.335 0.298 0.077 0.128 0.117 0.274 0.117 0.437 0 0.249-0.086 0.445-0.256 0.589-0.17 0.143-0.405 0.215-0.707 0.215h-0.458zM28.73 20.233h0.467c0.139 0 0.244-0.033 0.315-0.098 0.074-0.065 0.11-0.158 0.11-0.279 0-0.006 0-0.012 0-0.019 0-0.109-0.042-0.209-0.11-0.283l0 0c-0.073-0.076-0.174-0.116-0.304-0.118h-0.48v0.798zM32.040 20.451h-1.004v0.68h1.179v0.42h-1.702v-2.54h1.699v0.424h-1.176v0.605h1.005v0.41zM34.468 19.436h-0.778v2.115h-0.523v-2.115h-0.767v-0.424h2.068v0.424zM36.295 20.451h-1.004v0.68h1.179v0.42h-1.702v-2.54h1.699v0.424h-1.175v0.605h1.004v0.41zM37.717 20.622h-0.417v0.93h-0.524v-2.54h0.944c0.3 0 0.531 0.067 0.694 0.201s0.244 0.323 0.244 0.567c0 0.173-0.038 0.318-0.113 0.435-0.084 0.122-0.2 0.217-0.335 0.274l-0.005 0.002 0.549 1.037v0.024h-0.561l-0.476-0.929zM37.3 20.198h0.422c0.131 0 0.233-0.033 0.305-0.099 0.067-0.066 0.109-0.157 0.109-0.258 0-0.007-0-0.013-0.001-0.020l0 0.001c0-0.12-0.034-0.214-0.103-0.283-0.067-0.068-0.171-0.103-0.312-0.103h-0.42v0.762zM40.374 20.886c0-0.004 0-0.010 0-0.015 0-0.086-0.041-0.163-0.105-0.211l-0.001-0c-0.070-0.054-0.195-0.11-0.377-0.167-0.167-0.052-0.31-0.111-0.446-0.182l0.015 0.007c-0.289-0.156-0.433-0.366-0.433-0.63 0-0.137 0.039-0.26 0.115-0.366 0.078-0.108 0.189-0.192 0.333-0.253 0.145-0.060 0.308-0.090 0.488-0.090 0.182 0 0.343 0.033 0.485 0.099 0.142 0.065 0.252 0.157 0.329 0.277 0.079 0.119 0.119 0.256 0.119 0.408h-0.524c0-0.116-0.036-0.207-0.11-0.27-0.073-0.065-0.176-0.098-0.308-0.098-0.128 0-0.227 0.027-0.298 0.082-0.065 0.047-0.107 0.122-0.107 0.207 0 0.002 0 0.004 0 0.006v-0c0 0.083 0.042 0.152 0.124 0.208s0.207 0.108 0.368 0.157c0.298 0.089 0.514 0.201 0.651 0.333s0.204 0.298 0.204 0.495c0 0.22-0.083 0.393-0.25 0.518s-0.39 0.187-0.671 0.187c-0.195 0-0.373-0.036-0.534-0.107-0.151-0.064-0.275-0.165-0.366-0.291l-0.002-0.003c-0.078-0.117-0.125-0.261-0.125-0.417 0-0.006 0-0.011 0-0.017l-0 0.001h0.524c0 0.28 0.167 0.42 0.502 0.42 0.124 0 0.221-0.025 0.291-0.075 0.064-0.046 0.105-0.12 0.105-0.203 0-0.003-0-0.007-0-0.010l0 0z"></path>
</svg>
