<!-- Generated by IcoMoon.io -->
<svg version="1.1" xmlns="http://www.w3.org/2000/svg" width="25" height="25" viewBox="0 0 25 25">
<title>instagram</title>
<path fill="#afb1b8" d="M24.975 7.35c-0.057-1.329-0.273-2.241-0.58-3.032-0.331-0.868-0.824-1.608-1.445-2.216l-0.001-0.001c-0.609-0.619-1.347-1.109-2.17-1.427l-0.042-0.014c-0.796-0.307-1.704-0.521-3.032-0.58-1.337-0.064-1.762-0.079-5.157-0.079-3.394 0-3.819 0.015-5.152 0.074-1.327 0.057-2.241 0.273-3.031 0.58-0.869 0.331-1.609 0.823-2.218 1.445l-0.001 0.001c-0.618 0.609-1.108 1.347-1.426 2.17l-0.014 0.042c-0.309 0.796-0.523 1.704-0.581 3.032-0.064 1.337-0.079 1.763-0.079 5.157 0 3.394 0.015 3.819 0.074 5.152 0.059 1.329 0.274 2.241 0.581 3.032 0.333 0.868 0.825 1.607 1.444 2.217l0.001 0.001c0.625 0.635 1.382 1.127 2.212 1.44 0.796 0.309 1.705 0.524 3.032 0.581 1.334 0.059 1.759 0.074 5.152 0.074 3.395 0 3.82-0.015 5.152-0.074 1.329-0.057 2.241-0.273 3.032-0.58 1.685-0.664 2.995-1.973 3.644-3.615l0.015-0.043c0.307-0.796 0.523-1.705 0.581-3.032 0.059-1.334 0.073-1.759 0.073-5.152s-0.005-3.819-0.062-5.152zM22.725 17.557c-0.055 1.221-0.26 1.88-0.43 2.32-0.431 1.093-1.281 1.942-2.347 2.363l-0.028 0.010c-0.438 0.171-1.102 0.376-2.319 0.43-1.319 0.059-1.714 0.074-5.050 0.074-3.335 0-3.736-0.015-5.050-0.074-1.221-0.054-1.88-0.259-2.32-0.43-0.563-0.21-1.042-0.528-1.434-0.932l-0.001-0.001c-0.404-0.393-0.722-0.873-0.925-1.408l-0.009-0.027c-0.17-0.44-0.375-1.104-0.429-2.32-0.059-1.319-0.074-1.715-0.074-5.050 0-3.336 0.015-3.737 0.074-5.050 0.054-1.221 0.259-1.88 0.429-2.32 0.21-0.564 0.53-1.044 0.936-1.435l0.001-0.001c0.394-0.404 0.874-0.721 1.411-0.924l0.027-0.009c0.438-0.171 1.102-0.375 2.319-0.43 1.319-0.057 1.715-0.073 5.050-0.073 3.34 0 3.736 0.015 5.050 0.073 1.221 0.054 1.88 0.259 2.32 0.43 0.541 0.2 1.035 0.518 1.435 0.932 0.415 0.406 0.732 0.894 0.934 1.438 0.17 0.438 0.375 1.102 0.429 2.319 0.059 1.319 0.074 1.714 0.074 5.050 0 3.335-0.015 3.725-0.074 5.045z"></path>
<path fill="#afb1b8" d="M12.546 6.080c-3.546 0.001-6.421 2.876-6.421 6.422v0c0.071 3.493 2.919 6.297 6.423 6.297s6.351-2.804 6.422-6.29l0-0.007c-0.001-3.547-2.876-6.422-6.422-6.423h-0zM12.546 16.668c-2.301-0-4.166-1.866-4.166-4.166s1.865-4.166 4.166-4.166c0 0 0 0 0.001 0h-0c2.301 0 4.167 1.866 4.167 4.167s-1.866 4.167-4.167 4.167v0zM20.723 5.826c0 0.828-0.672 1.5-1.5 1.5s-1.5-0.672-1.5-1.5v0c0-0.828 0.672-1.5 1.5-1.5s1.5 0.672 1.5 1.5v0z"></path>
</svg>
