<!-- Generated by IcoMoon.io -->
<svg version="1.1" xmlns="http://www.w3.org/2000/svg" width="25" height="25" viewBox="0 0 25 25">
<title>linkedin</title>
<path fill="#afb1b8" d="M24.994 25h0.006v-9.17c0-4.485-0.965-7.94-6.209-7.94-2.521 0-4.212 1.382-4.904 2.695h-0.073v-2.276h-4.973v16.69h5.177v-8.264c0-2.176 0.412-4.281 3.107-4.281 2.655 0 2.695 2.484 2.695 4.42v8.126h5.171zM0.413 8.309h5.184v16.691h-5.184v-16.691zM3.002 0c-1.658 0-3.002 1.344-3.002 3.002v0c0 1.656 1.345 3.030 3.002 3.030 1.656 0 3.001-1.373 3.001-3.030s-1.344-3.001-3.001-3.002h-0z"></path>
</svg>
