<!-- Generated by IcoMoon.io -->
<svg version="1.1" xmlns="http://www.w3.org/2000/svg" width="16" height="25" viewBox="0 0 16 25">
<title>smartphone</title>
<path fill="#757575" d="M13.281 0h-10.938c-1.292 0-2.344 1.052-2.344 2.344v20.313c0 1.292 1.052 2.344 2.344 2.344h10.938c1.292 0 2.344-1.052 2.344-2.344v-20.313c0-1.292-1.052-2.344-2.344-2.344zM2.344 1.563h10.938c0.431 0 0.781 0.35 0.781 0.781v0 16.406h-12.5v-16.406c0-0.431 0.35-0.781 0.781-0.781v0zM13.281 23.438h-10.938c-0.431 0-0.781-0.35-0.781-0.781v0-2.344h12.5v2.344c0 0.431-0.35 0.781-0.781 0.781v0z"></path>
<path fill="#757575" d="M3.678 21.467c0.141 0.128 0.229 0.311 0.229 0.516s-0.088 0.388-0.228 0.515l-0.001 0.001c-0.145 0.133-0.34 0.215-0.553 0.215s-0.408-0.082-0.554-0.215l0.001 0.001c-0.141-0.128-0.229-0.311-0.229-0.516s0.088-0.388 0.228-0.515l0.001-0.001c0.145-0.133 0.34-0.215 0.553-0.215s0.408 0.082 0.554 0.215l-0.001-0.001z"></path>
</svg>
