<!-- Generated by IcoMoon.io -->
<svg version="1.1" xmlns="http://www.w3.org/2000/svg" width="52" height="25" viewBox="0 0 52 25">
<title>tag-line</title>
<path fill="#afb1b8" d="M26.347 11.893c-0.212-0.273-0.34-0.621-0.34-0.998 0-0.037 0.001-0.074 0.004-0.111l-0 0.005v-1.602c0-0.491 0.111-0.864 0.334-1.119 0.222-0.256 0.605-0.382 1.147-0.381 0.509 0 0.872 0.109 1.085 0.326 0.233 0.277 0.347 0.616 0.321 0.958v0.377h-0.911v-0.382c0.003-0.124-0.006-0.249-0.027-0.373-0.016-0.090-0.063-0.167-0.13-0.221l-0.001-0.001c-0.082-0.055-0.183-0.088-0.291-0.088-0.014 0-0.027 0.001-0.041 0.002l0.002-0c-0.012-0.001-0.026-0.001-0.039-0.001-0.115 0-0.221 0.035-0.31 0.094l0.002-0.001c-0.075 0.061-0.129 0.145-0.151 0.242l-0.001 0.003c-0.023 0.11-0.036 0.236-0.036 0.365 0 0.011 0 0.022 0 0.033l-0-0.002v1.944c-0.014 0.187 0.026 0.375 0.117 0.546 0.047 0.059 0.109 0.104 0.179 0.131l0.003 0.001c0.053 0.021 0.115 0.034 0.18 0.034 0.019 0 0.039-0.001 0.058-0.003l-0.002 0c0.011 0.001 0.025 0.001 0.038 0.001 0.106 0 0.205-0.033 0.285-0.090l-0.002 0.001c0.070-0.059 0.12-0.141 0.136-0.234l0-0.002c0.021-0.129 0.031-0.259 0.028-0.389v-0.394h0.912v0.36c0.002 0.028 0.003 0.062 0.003 0.095 0 0.346-0.12 0.664-0.32 0.915l0.002-0.003c-0.209 0.238-0.567 0.357-1.091 0.357s-0.921-0.127-1.146-0.391zM30.143 11.91c-0.231-0.25-0.346-0.613-0.346-1.093v-1.685c0-0.476 0.115-0.836 0.346-1.081s0.615-0.366 1.155-0.365c0.536 0 0.919 0.122 1.149 0.365 0.23 0.244 0.347 0.604 0.347 1.081v1.684c0 0.476-0.117 0.841-0.351 1.092s-0.615 0.376-1.146 0.376-0.923-0.127-1.156-0.374zM31.722 11.506c0.083-0.156 0.12-0.327 0.109-0.498v-2.063c0.001-0.017 0.002-0.036 0.002-0.056 0-0.159-0.040-0.308-0.111-0.438l0.002 0.005c-0.048-0.060-0.111-0.106-0.183-0.133l-0.003-0.001c-0.053-0.021-0.114-0.033-0.179-0.033-0.022 0-0.043 0.001-0.064 0.004l0.003-0c-0.019-0.002-0.040-0.004-0.062-0.004-0.064 0-0.126 0.012-0.183 0.034l0.003-0.001c-0.075 0.028-0.139 0.075-0.187 0.134l-0.001 0.001c-0.083 0.152-0.121 0.32-0.109 0.489v2.072c-0.011 0.172 0.026 0.343 0.109 0.499 0.053 0.052 0.119 0.094 0.192 0.123 0.069 0.028 0.15 0.044 0.234 0.044s0.165-0.016 0.239-0.046l-0.004 0.002c0.074-0.029 0.139-0.071 0.192-0.123v-0.010zM33.891 7.736h0.981l0.738 3.108 0.756-3.108h0.954l0.097 4.487h-0.706l-0.076-3.118-0.728 3.118h-0.567l-0.754-3.13-0.070 3.13h-0.713l0.089-4.487zM38.517 7.736h1.529c0.881 0 1.321 0.424 1.321 1.274 0 0.813-0.464 1.22-1.391 1.219h-0.521v1.994h-0.944l0.006-4.487zM39.823 9.653c0.093 0.011 0.188 0.003 0.278-0.022 0.089-0.024 0.172-0.065 0.241-0.12 0.108-0.152 0.156-0.329 0.136-0.507 0.001-0.015 0.001-0.032 0.001-0.049 0-0.127-0.017-0.251-0.049-0.368l0.002 0.010c-0.015-0.048-0.039-0.089-0.070-0.124l0 0c-0.033-0.037-0.072-0.067-0.117-0.089l-0.002-0.001c-0.11-0.046-0.238-0.073-0.372-0.073-0.017 0-0.035 0-0.052 0.001l0.002-0h-0.366v1.341h0.367zM42.728 7.736h1.013l1.040 4.487h-0.88l-0.206-1.034h-0.904l-0.211 1.034h-0.893l1.039-4.487zM43.594 10.668l-0.353-1.883-0.353 1.883h0.706zM45.621 7.736h0.661l1.264 2.559v-2.559h0.783v4.487h-0.628l-1.272-2.672v2.672h-0.809l0.002-4.487zM50.163 10.511l-1.051-2.769h0.886l0.642 1.779 0.602-1.779h0.867l-1.038 2.77v1.711h-0.906v-1.711zM27.804 14.184v0.234h-0.77v1.823h-0.323v-1.823h-0.774v-0.234h1.867zM30.218 16.242h-0.249c-0.002 0-0.004 0-0.007 0-0.024 0-0.045-0.007-0.063-0.020l0 0c-0.018-0.011-0.032-0.027-0.041-0.047l-0-0.001-0.223-0.489h-1.068l-0.222 0.489c-0.007 0.022-0.019 0.041-0.034 0.056l-0 0c-0.018 0.012-0.040 0.020-0.064 0.020-0.002 0-0.004-0-0.006-0h-0.249l0.944-2.058h0.328l0.956 2.050zM28.656 15.478h0.891l-0.378-0.838c-0.024-0.053-0.048-0.117-0.067-0.183l-0.003-0.011c-0.013 0.039-0.024 0.077-0.036 0.109l-0.034 0.086-0.373 0.836zM31.845 16.040c0.059 0.003 0.118 0.003 0.178 0 0.051-0.004 0.101-0.013 0.151-0.024 0.046-0.009 0.092-0.022 0.136-0.037 0.042-0.014 0.083-0.033 0.126-0.051v-0.463h-0.377c-0.001 0-0.002 0-0.003 0-0.018 0-0.035-0.006-0.048-0.017l0 0c-0.006-0.004-0.011-0.010-0.014-0.016l-0-0c-0.003-0.005-0.004-0.012-0.004-0.019 0-0.001 0-0.001 0-0.002v0-0.158h0.732v0.789c-0.114 0.071-0.247 0.129-0.388 0.165l-0.010 0.002c-0.078 0.020-0.156 0.034-0.236 0.043-0.092 0.008-0.183 0.013-0.276 0.013-0.004 0-0.008 0-0.012 0-0.166 0-0.325-0.028-0.474-0.080l0.010 0.003c-0.145-0.051-0.271-0.124-0.379-0.216l0.002 0.001c-0.101-0.089-0.183-0.198-0.241-0.32l-0.003-0.006c-0.055-0.122-0.087-0.264-0.087-0.413 0-0.005 0-0.010 0-0.015v0.001c-0-0.004-0-0.008-0-0.013 0-0.151 0.031-0.294 0.088-0.424l-0.003 0.007c0.054-0.122 0.137-0.233 0.243-0.326 0.108-0.093 0.236-0.165 0.378-0.213 0.161-0.053 0.333-0.079 0.506-0.077 0.088 0 0.176 0.006 0.262 0.018 0.077 0.011 0.152 0.028 0.224 0.052 0.067 0.021 0.129 0.049 0.189 0.082 0.058 0.032 0.113 0.068 0.164 0.107l-0.091 0.127c-0.008 0.012-0.018 0.021-0.030 0.028l-0 0c-0.013 0.007-0.027 0.011-0.043 0.011h-0c-0.022-0-0.042-0.006-0.059-0.016l0.001 0c-0.038-0.018-0.069-0.034-0.098-0.052l0.005 0.003c-0.035-0.020-0.077-0.038-0.12-0.054l-0.006-0.002c-0.048-0.017-0.107-0.033-0.167-0.044l-0.007-0.001c-0.068-0.011-0.147-0.018-0.227-0.018-0.004 0-0.009 0-0.013 0h0.001c-0.003-0-0.007-0-0.011-0-0.126 0-0.248 0.021-0.361 0.060l0.008-0.002c-0.105 0.036-0.2 0.092-0.278 0.163-0.075 0.070-0.134 0.155-0.173 0.251l-0.002 0.005c-0.040 0.102-0.063 0.22-0.063 0.343s0.023 0.241 0.065 0.35l-0.002-0.007c0.041 0.097 0.106 0.185 0.189 0.259 0.077 0.071 0.171 0.126 0.275 0.163 0.12 0.036 0.247 0.049 0.374 0.041zM34.853 16.008h1.031v0.234h-1.345v-2.058h0.322l-0.007 1.823zM36.956 16.242h-0.322v-2.058h0.322v2.058zM38.156 14.194c0.019 0.009 0.036 0.022 0.049 0.037l0 0 1.379 1.551c-0.001-0.011-0.001-0.024-0.001-0.037s0-0.026 0.001-0.038l-0 0.002v-1.533h0.281v2.067h-0.162c-0.003 0-0.007 0-0.011 0-0.021 0-0.042-0.004-0.060-0.012l0.001 0c-0.020-0.010-0.036-0.023-0.050-0.039l-0-0-1.378-1.55v1.6h-0.27v-2.058h0.168c0.018 0 0.037 0.003 0.053 0.009zM42.242 14.184v0.226h-1.143v0.679h0.927v0.218h-0.927v0.703h1.143v0.226h-1.476v-2.053h1.476zM8.423 1.476l14.331 3.513v12.31l-14.331-3.511v-12.312zM7.504 0.426v13.959l16.167 3.964v-13.958l-16.166-3.966z"></path>
<path fill="#afb1b8" d="M16.169 24.829l-16.169-3.968v-13.957l16.169 3.966v13.959z"></path>
<path fill="#afb1b8" d="M7.772 1.317l14.143 3.469-6.014 5.194-14.146-3.471 6.017-5.193zM7.504 0.426l-7.504 6.478 16.169 3.967 7.502-6.479-16.167-3.965zM17.078 24.044l6.593-5.694-6.593-1.617v7.311z"></path>
</svg>
