<!-- Generated by IcoMoon.io -->
<svg version="1.1" xmlns="http://www.w3.org/2000/svg" width="25" height="25" viewBox="0 0 25 25">
<title>twitter</title>
<path fill="#afb1b8" d="M25 4.749c-0.859 0.385-1.856 0.67-2.901 0.803l-0.053 0.006c1.063-0.638 1.861-1.623 2.245-2.796l0.010-0.036c-0.936 0.564-2.024 0.995-3.184 1.229l-0.066 0.011c-0.937-0.999-2.266-1.622-3.74-1.622-2.83 0-5.124 2.294-5.124 5.124 0 0.001 0 0.002 0 0.003v-0c0 0.406 0.034 0.798 0.119 1.169-4.261-0.207-8.031-2.25-10.564-5.36-0.441 0.742-0.702 1.634-0.705 2.588v0.001c0 1.775 0.915 3.349 2.276 4.259-0.853-0.023-1.646-0.254-2.339-0.643l0.025 0.013v0.056c0.002 2.473 1.747 4.537 4.073 5.031l0.034 0.006c-0.39 0.106-0.837 0.168-1.299 0.168-0.016 0-0.032-0-0.047-0l0.002 0c-0.327 0-0.659-0.019-0.97-0.087 0.664 2.030 2.548 3.523 4.789 3.57-1.73 1.364-3.942 2.188-6.346 2.188-0.003 0-0.007 0-0.010 0h0.001c-0.014 0-0.031 0-0.048 0-0.415 0-0.824-0.026-1.225-0.078l0.048 0.005c2.208 1.442 4.912 2.3 7.816 2.3 0.016 0 0.033-0 0.049-0h-0.003c9.431 0 14.588-7.812 14.588-14.585 0-0.225-0.007-0.445-0.019-0.663 1.015-0.731 1.868-1.612 2.546-2.621l0.023-0.037z"></path>
</svg>
