<!-- Generated by IcoMoon.io -->
<svg version="1.1" xmlns="http://www.w3.org/2000/svg" width="22" height="25" viewBox="0 0 22 25">
<title>ya</title>
<path fill="#afb1b8" d="M3.191 0l3.728 3.529-6.919-0.004v17.121h18.085v-6.546l3.723 3.525v-17.624h-18.617zM17.921 13.685l-10.569-10.005h10.569v10.005zM14.64 18.141h-11.778v-11.514h0.832v10.735h10.946v0.779zM5.644 22.926l-0.435 0.896-0.435-0.896h-0.365l0.635 1.195v0.696h0.33v-0.696l0.634-1.195h-0.363zM6.19 24.816l0.153-0.44h0.732l0.154 0.44h0.343l-0.715-1.891h-0.295l-0.714 1.891h0.341zM6.71 23.327l0.274 0.784h-0.548l0.274-0.785zM8.442 24.066c-0.045 0.067-0.071 0.149-0.071 0.237 0 0.001 0 0.002 0 0.003v-0c0 0.16 0.056 0.289 0.168 0.388s0.262 0.148 0.449 0.148c0.187 0 0.348-0.051 0.483-0.152l0.106 0.126h0.366l-0.278-0.329c0.109-0.149 0.163-0.34 0.163-0.573h-0.274c0 0.128-0.027 0.243-0.079 0.347l-0.365-0.431 0.129-0.094c0.078-0.053 0.144-0.119 0.195-0.195l0.002-0.003c0.037-0.061 0.060-0.136 0.060-0.215 0-0.001 0-0.002-0-0.003v0c0-0.002 0-0.005 0-0.007 0-0.116-0.051-0.221-0.132-0.292l-0-0c-0.084-0.076-0.196-0.123-0.319-0.123-0.007 0-0.013 0-0.020 0l0.001-0c-0.152 0-0.273 0.044-0.363 0.13s-0.135 0.203-0.135 0.351c0 0.061 0.014 0.123 0.043 0.188 0.030 0.065 0.081 0.144 0.154 0.236-0.14 0.101-0.234 0.187-0.281 0.261zM9.295 24.484c-0.081 0.066-0.185 0.106-0.298 0.106h-0c-0.005 0-0.010 0-0.015 0-0.081 0-0.156-0.031-0.211-0.082l0 0c-0.052-0.051-0.085-0.123-0.085-0.202 0-0.004 0-0.007 0-0.011l-0 0.001c0-0.101 0.052-0.191 0.156-0.27l0.040-0.029 0.413 0.487zM8.956 23.646c-0.089-0.11-0.134-0.201-0.134-0.274 0-0.063 0.019-0.115 0.055-0.157 0.034-0.039 0.084-0.063 0.139-0.063 0.003 0 0.005 0 0.008 0l-0-0c0.002-0 0.004-0 0.007-0 0.052 0 0.1 0.020 0.135 0.053l-0-0c0.037 0.035 0.056 0.077 0.056 0.126 0 0.002 0 0.004 0 0.007 0 0.070-0.031 0.133-0.080 0.176l-0 0-0.040 0.032-0.144 0.099zM12.034 24.673c0.13-0.113 0.204-0.271 0.223-0.472h-0.327c-0.018 0.135-0.059 0.231-0.123 0.289s-0.162 0.087-0.291 0.087c-0.141 0-0.248-0.054-0.322-0.161s-0.11-0.263-0.11-0.468v-0.167c0.002-0.202 0.041-0.354 0.117-0.459 0.077-0.105 0.187-0.157 0.33-0.157 0.123 0 0.216 0.030 0.279 0.090s0.104 0.158 0.12 0.294h0.327c-0.021-0.207-0.095-0.367-0.222-0.48s-0.295-0.17-0.504-0.17c-0.155 0-0.291 0.037-0.41 0.111-0.119 0.076-0.212 0.183-0.269 0.309l-0.002 0.004c-0.060 0.132-0.095 0.287-0.095 0.45 0 0.008 0 0.016 0 0.023l-0-0.001v0.177c0.003 0.174 0.035 0.327 0.097 0.459s0.151 0.233 0.265 0.305c0.115 0.071 0.248 0.106 0.399 0.106 0.215 0 0.388-0.056 0.518-0.169zM13.965 24.409c0.064-0.14 0.096-0.303 0.096-0.488v-0.105c0-0.006 0-0.012 0-0.019 0-0.169-0.036-0.329-0.102-0.473l0.003 0.007c-0.060-0.133-0.155-0.242-0.274-0.317l-0.003-0.002c-0.119-0.074-0.255-0.112-0.409-0.112s-0.29 0.037-0.41 0.113c-0.119 0.074-0.211 0.182-0.277 0.323-0.062 0.137-0.098 0.297-0.098 0.465 0 0.008 0 0.016 0 0.025l-0-0.001v0.106c0.001 0.181 0.034 0.34 0.098 0.479 0.066 0.139 0.159 0.246 0.278 0.321 0.12 0.074 0.257 0.112 0.41 0.112 0.155 0 0.292-0.037 0.411-0.112 0.119-0.076 0.211-0.183 0.275-0.322zM13.613 23.339c0.080 0.112 0.119 0.273 0.119 0.482v0.098c0 0.213-0.039 0.375-0.118 0.486-0.078 0.111-0.189 0.166-0.335 0.166-0.004 0-0.009 0-0.014 0-0.134 0-0.252-0.067-0.323-0.169l-0.001-0.001c-0.081-0.113-0.121-0.274-0.121-0.482v-0.109c0.002-0.203 0.043-0.361 0.122-0.471 0.071-0.102 0.188-0.168 0.32-0.168 0.005 0 0.010 0 0.014 0l-0.001-0c0.146 0 0.258 0.056 0.337 0.168z"></path>
</svg>
